<?xml version="1.0" encoding="UTF-8" standalone="no"?>
<!-- Created with Inkscape (http://www.inkscape.org/) -->

<svg
   width="256"
   height="256"
   viewBox="0 0 67.733331 67.733333"
   version="1.1"
   id="svg1"
   xml:space="preserve"
   inkscape:version="1.3.2 (091e20e, 2023-11-25, custom)"
   sodipodi:docname="logo.svg"
   inkscape:export-filename="logo_servus.png"
   inkscape:export-xdpi="96"
   inkscape:export-ydpi="96"
   xmlns:inkscape="http://www.inkscape.org/namespaces/inkscape"
   xmlns:sodipodi="http://sodipodi.sourceforge.net/DTD/sodipodi-0.dtd"
   xmlns="http://www.w3.org/2000/svg"
   xmlns:svg="http://www.w3.org/2000/svg"><sodipodi:namedview
     id="namedview1"
     pagecolor="#ffffff"
     bordercolor="#666666"
     borderopacity="1.0"
     inkscape:showpageshadow="2"
     inkscape:pageopacity="0.0"
     inkscape:pagecheckerboard="0"
     inkscape:deskcolor="#d1d1d1"
     inkscape:document-units="mm"
     inkscape:zoom="1.0610059"
     inkscape:cx="299.24433"
     inkscape:cy="272.38303"
     inkscape:window-width="1918"
     inkscape:window-height="1048"
     inkscape:window-x="1592"
     inkscape:window-y="219"
     inkscape:window-maximized="0"
     inkscape:current-layer="layer3" /><defs
     id="defs1" /><g
     inkscape:groupmode="layer"
     id="layer3"
     inkscape:label="Logo"><rect
       style="display:inline;fill:#f2f8fe;fill-opacity:1;stroke:none;stroke-width:0.0889092"
       id="rect1"
       width="67.733337"
       height="67.733337"
       x="1.8469238e-07"
       y="-3.4057617e-08"
       inkscape:export-filename="logo.png"
       inkscape:export-xdpi="90"
       inkscape:export-ydpi="90"
       inkscape:label="Background" /><g
       id="g1"
       transform="matrix(0.44454586,0,0,0.44454586,-11.529079,-13.667981)"
       inkscape:label="Logo Paths"><path
         style="display:inline;fill:#ffffff;stroke:none;stroke-width:0.264583px;stroke-linecap:butt;stroke-linejoin:miter;stroke-opacity:1"
         d="m 52.61713,111.96725 24.687656,-32.418131 6.732998,6.234255 22.193956,-25.934508 19.20151,26.433248 8.97733,-4.738034 17.20655,30.67254 -11.96977,7.73048 -77.55416,-2.74307 z"
         id="path2"
         inkscape:label="BgFill" /><path
         style="fill:#0c3473;fill-opacity:1;stroke-width:0.895503"
         d="m 97.829046,128.86334 c -0.716725,-0.0465 -3.169007,-0.29302 -5.449505,-0.54783 -5.903813,-0.65966 -33.56382,-3.72242 -36.251107,-4.01405 -13.413287,-1.45562 -15.209217,-1.74305 -15.937046,-2.55067 -0.487036,-0.54044 -0.73303,-1.55283 -0.531554,-2.18762 0.08781,-0.27667 1.346547,-2.01696 2.797189,-3.8673 5.879804,-7.49989 10.310073,-13.21411 13.950097,-17.993037 2.110066,-2.770268 4.649357,-6.103063 5.642868,-7.406209 0.99351,-1.303146 3.605774,-4.749105 5.805032,-7.657701 2.254528,-2.981686 4.284465,-5.436151 4.653931,-5.627206 1.673374,-0.865343 3.989549,0.04379 6.540005,2.567074 1.062166,1.050846 1.795619,1.609739 1.927133,1.468482 0.203001,-0.218055 11.231829,-14.331822 16.322031,-20.887579 1.33508,-1.719474 2.664159,-3.292131 2.95351,-3.494792 0.70898,-0.496601 2.2581,-0.465277 3.26756,0.06609 0.89697,0.472128 2.14715,1.946144 8.35676,9.853028 9.92751,12.641004 11.14791,14.162196 11.45711,14.280841 0.18007,0.06913 0.92022,-0.321933 1.64477,-0.868978 2.80719,-2.119448 4.88527,-2.767963 6.56287,-2.048122 1.08244,0.464462 1.41124,0.85655 9.6601,11.519611 4.0828,5.277739 10.41488,13.412668 14.07127,18.077628 9.54835,12.18216 9.37273,11.94385 9.37273,12.71865 0,1.14563 -0.97007,2.03558 -2.54121,2.33132 -2.58762,0.48707 -7.20052,1.06185 -15.58434,1.94184 -5.61548,0.58941 -17.27338,1.85237 -27.36603,2.9647 -12.60025,1.38871 -16.78796,1.65615 -21.324174,1.36185 z m 39.179884,-13.86621 c -0.0986,-0.16289 -0.62444,-0.98921 -1.16844,-1.83624 -1.36956,-2.13252 -3.04613,-5.5103 -3.63593,-7.32538 -0.74051,-2.27882 -1.34376,-5.66165 -1.06019,-5.945225 0.15768,-0.15768 1.33254,0.356985 3.51842,1.541295 1.80492,0.97791 3.31481,1.77802 3.35531,1.77802 0.0405,0 -0.84204,-1.83921 -1.96117,-4.087135 -1.11914,-2.247919 -2.33104,-4.726853 -2.69311,-5.508744 -0.36207,-0.781882 -1.52618,-3.227206 -2.58689,-5.43404 l -1.92857,-4.012429 -1.12894,1.880011 c -0.62092,1.034002 -1.50891,2.466423 -1.97333,3.183157 -1.04147,1.607294 -3.44067,6.244489 -5.2712,10.188212 -1.49872,3.228848 -2.11238,4.084568 -2.85307,3.978528 -0.51861,-0.0742 -1.12204,-1.10575 -7.69814,-13.159048 -0.94183,-1.72628 -1.79458,-3.189461 -1.89501,-3.251528 -0.10042,-0.06206 -1.91784,0.424209 -4.03869,1.080613 -2.53223,0.783726 -3.93625,1.113316 -4.089545,0.960024 -0.211329,-0.21133 1.994065,-4.722652 5.316335,-10.875036 l 0.92842,-1.719286 -1.9388,-6.454977 c -1.06633,-3.550241 -1.98527,-6.536754 -2.04211,-6.636701 -0.0569,-0.09995 -1.07378,1.126194 -2.259904,2.724757 -2.01174,2.71128 -7.090292,9.104575 -14.354267,18.070335 -4.282901,5.286282 -10.940718,12.525309 -10.940718,11.895797 0,-0.06851 0.85371,-1.524632 1.897133,-3.235822 l 1.897133,-3.111257 -2.178196,-3.05724 c -1.198005,-1.681487 -2.261299,-3.005883 -2.362867,-2.943108 -0.101568,0.06277 -1.544027,2.002624 -3.205454,4.310775 -4.027133,5.594729 -8.775601,11.868598 -13.622145,17.998132 -2.189558,2.76918 -3.942737,5.03488 -3.895953,5.03488 0.190288,0 5.013723,-2.20266 8.767376,-4.00369 2.200535,-1.05584 4.093056,-1.9197 4.205603,-1.9197 0.112547,0 0.204631,0.12094 0.204631,0.26876 0,0.43639 2.084688,4.70733 2.295095,4.70198 0.106001,-0.003 2.165211,-1.91347 4.576032,-4.24616 l 4.383301,-4.24127 3.535546,-1.617975 3.535546,-1.617984 3.417227,-4.264836 c 1.879483,-2.345664 3.508198,-4.298524 3.619392,-4.3397 0.227297,-0.08418 0.22196,-0.03618 -0.613509,5.521128 -1.023408,6.807427 -1.562743,8.709567 -3.918929,13.821257 -0.379604,0.82355 -0.6902,1.55075 -0.6902,1.61599 0,0.0652 1.092863,-0.8291 2.428587,-1.9874 1.335724,-1.1583 4.667624,-3.95577 7.404229,-6.21662 2.736604,-2.26083 5.583801,-4.628932 6.327131,-5.262446 l 1.35147,-1.151842 5.51964,3.917938 c 6.91477,4.90823 7.8829,5.68337 9.98197,7.99215 l 1.69799,1.86762 2.48782,-0.15247 c 2.47214,-0.1515 2.49679,-0.1477 3.90944,0.60418 0.78188,0.41616 3.07423,1.61515 5.0941,2.66442 2.01988,1.04928 3.77379,1.99861 3.89759,2.10964 0.34181,0.30654 0.65592,0.24111 0.45281,-0.0943 z"
         id="path1"
         inkscape:label="Mountain" /></g><text
       xml:space="preserve"
       style="font-style:normal;font-variant:normal;font-weight:normal;font-stretch:normal;font-size:13.5061px;line-height:1.25;font-family:'Cascadia Code PL';-inkscape-font-specification:'Cascadia Code PL, Normal';font-variant-ligatures:normal;font-variant-caps:normal;font-variant-numeric:normal;font-variant-east-asian:normal;display:none;fill:#0c3473;fill-opacity:1;stroke:none;stroke-width:0.337654"
       x="7.144567"
       y="56.13932"
       id="text1"
       inkscape:label="servus"><tspan
         sodipodi:role="line"
         id="tspan1"
         style="font-style:normal;font-variant:normal;font-weight:normal;font-stretch:normal;font-size:13.5061px;font-family:'Cascadia Code PL';-inkscape-font-specification:'Cascadia Code PL, Normal';font-variant-ligatures:normal;font-variant-caps:normal;font-variant-numeric:normal;font-variant-east-asian:normal;fill:#0c3473;fill-opacity:1;stroke-width:0.337654"
         x="7.144567"
         y="56.13932">servus!</tspan></text></g><g
     inkscape:groupmode="layer"
     id="layer2"
     inkscape:label="Fixed Text"
     style="display:inline"><path
       d="m 10.560661,56.271216 c 2.426877,0 3.468851,-0.646288 3.468851,-2.149897 0,-1.121112 -0.659477,-1.635504 -2.123517,-1.991622 l -1.292576,-0.316549 c -0.600125,-0.145085 -0.8837001,-0.276981 -0.8837001,-0.685857 0,-0.606719 0.6594771,-0.857321 2.2290341,-0.857321 0.514392,0 1.028785,0.02638 1.741021,0.09233 l 0.145085,-1.213438 c -0.619909,-0.09233 -1.17387,-0.131896 -1.846537,-0.131896 -2.6115314,0 -3.7194536,0.646288 -3.7194536,2.176276 0,1.055164 0.6265036,1.483824 2.0048116,1.833347 l 1.609125,0.408877 c 0.461634,0.118705 0.685857,0.29017 0.685857,0.712235 0,0.60672 -0.60672,0.870511 -2.018001,0.870511 -0.6330988,0 -1.3057659,-0.06595 -2.2290344,-0.211033 L 8.173352,56.073373 c 0.6199088,0.145085 1.3321446,0.197843 2.387309,0.197843 z m 9.061221,0 c 0.527582,0 1.213438,-0.02638 2.04438,-0.184654 l -0.171464,-1.226628 c -0.58034,0.118706 -1.134302,0.184654 -1.714642,0.184654 -1.404687,0 -2.288387,-0.613314 -2.532393,-1.78059 h 4.721859 c 0.02638,-0.27698 0.03957,-0.56715 0.03957,-0.896889 0,-2.176276 -1.081543,-3.350146 -2.967649,-3.350146 -2.004811,0 -3.152302,1.332145 -3.152302,3.613937 0,2.34774 1.345334,3.640316 3.732643,3.640316 z m -2.426878,-4.075571 c 0.112112,-1.246413 0.778184,-1.952054 1.859727,-1.952054 1.055164,0 1.688262,0.699046 1.688262,1.952054 z m 9.259065,0.936458 c 0,-1.872916 0.58034,-2.92808 1.767399,-2.92808 0.672667,0 0.962838,0.422065 0.962838,1.437661 h 1.384902 c 0,-1.846537 -0.619908,-2.624721 -2.057569,-2.624721 -1.213439,0 -1.846538,0.633099 -1.925675,1.925674 H 26.42769 L 26.190278,49.148859 H 23.7634 v 1.226628 h 1.292576 v 4.537205 h -1.556367 v 1.226628 h 4.669101 v -1.226628 h -1.714641 z m 7.45869,3.007217 h 1.859726 l 2.49942,-6.990461 h -1.490419 l -1.879511,5.803402 h -0.118706 l -1.879511,-5.803402 h -1.490419 z m 8.157737,0.131896 c 0.936458,0 1.609125,-0.527582 1.833348,-1.47723 h 0.1253 l 0.09892,1.411282 2.242224,-0.06595 V 55.018209 L 45.407452,54.873124 V 49.148859 H 44.00936 v 3.759022 c 0,1.523393 -0.527582,2.110328 -1.543177,2.110328 -0.824347,0 -1.305766,-0.448445 -1.305766,-1.253008 v -4.616342 h -1.398092 v 4.616342 c 0,1.595936 0.837536,2.506015 2.308171,2.506015 z m 8.058814,0 c 2.426877,0 3.468852,-0.646288 3.468852,-2.149897 0,-1.121112 -0.659478,-1.635504 -2.123518,-1.991622 l -1.292576,-0.316549 c -0.600124,-0.145085 -0.8837,-0.276981 -0.8837,-0.685857 0,-0.606719 0.659478,-0.857321 2.229034,-0.857321 0.514393,0 1.028785,0.02638 1.741021,0.09233 l 0.145085,-1.213438 c -0.619909,-0.09233 -1.17387,-0.131896 -1.846537,-0.131896 -2.611531,0 -3.719453,0.646288 -3.719453,2.176276 0,1.055164 0.626503,1.483824 2.004811,1.833347 l 1.609125,0.408877 c 0.461635,0.118705 0.685857,0.29017 0.685857,0.712235 0,0.60672 -0.606719,0.870511 -2.018001,0.870511 -0.633099,0 -1.305766,-0.06595 -2.229034,-0.211033 l -0.158275,1.266197 c 0.619909,0.145085 1.332145,0.197843 2.387309,0.197843 z m 7.874162,-3.139113 h 1.134301 l 0.131896,-6.423311 h -1.371714 z m 0.58034,3.139113 c 0.540772,0 0.976027,-0.435255 0.976027,-0.976027 0,-0.540771 -0.435255,-0.976027 -0.976027,-0.976027 -0.540771,0 -0.976027,0.435256 -0.976027,0.976027 0,0.540772 0.435256,0.976027 0.976027,0.976027 z"
       id="text2"
       style="font-size:13.5061px;line-height:1.25;font-family:'Cascadia Code PL';-inkscape-font-specification:'Cascadia Code PL, Normal';fill:#0c3473;stroke-width:0.337654"
       inkscape:label="servus"
       aria-label="servus!" /></g></svg>
